/* XPM */
static char *_bfd1acd1c6b4915903c0423aba3cef4LLsp49WqX0NRtHnY[] = {
/* columns rows colors chars-per-pixel */
"64 64 256 2 ",
"   c #020B1D",
".  c #000B27",
"X  c #011827",
"o  c #001B35",
"O  c #181D31",
"+  c #00242B",
"@  c #022829",
"#  c #002D33",
"$  c #00253C",
"%  c #012C3C",
"&  c #082738",
"*  c #172A37",
"=  c #01323C",
"-  c #063839",
";  c #173838",
":  c #172B29",
">  c #2C3138",
",  c #5F323B",
"<  c #105036",
"1  c #387636",
"2  c #1C6E3B",
"3  c #4F6D3C",
"4  c #012C43",
"5  c #052841",
"6  c #172E47",
"7  c #013344",
"8  c #003A43",
"9  c #013449",
"0  c #0D3C4C",
"q  c #0B3847",
"w  c #14354C",
"e  c #173748",
"r  c #0C3C56",
"t  c #183B54",
"y  c #012E51",
"u  c #283847",
"i  c #213A52",
"p  c #32354E",
"a  c #173B64",
"s  c #0B3F66",
"d  c #31396C",
"f  c #001E40",
"g  c #54364B",
"h  c #6D3949",
"j  c #783A7E",
"k  c #4D377F",
"l  c #0A474A",
"z  c #15444C",
"x  c #0C4654",
"c  c #1C4354",
"v  c #19465A",
"b  c #13564E",
"n  c #284549",
"m  c #274858",
"M  c #354A58",
"N  c #38535C",
"B  c #30504F",
"V  c #167544",
"C  c #336F53",
"Z  c #1B4964",
"A  c #194877",
"S  c #19526F",
"D  c #264A64",
"F  c #364967",
"G  c #275669",
"H  c #385767",
"J  c #275875",
"K  c #355B74",
"L  c #294674",
"P  c #2B6378",
"I  c #386678",
"U  c #366B6F",
"Y  c #59475B",
"T  c #46575A",
"R  c #464950",
"E  c #6D5253",
"W  c #476857",
"Q  c #487657",
"!  c #4C734D",
"~  c #78625B",
"^  c #6D6350",
"/  c #484968",
"(  c #455867",
")  c #575A69",
"_  c #524F69",
"`  c #715063",
"'  c #476769",
"]  c #567664",
"[  c #476A78",
"{  c #49747A",
"}  c #56747C",
"|  c #4F6B6E",
" . c #69726B",
".. c #657777",
"X. c #74696B",
"o. c #9A2D3B",
"O. c #904A3D",
"+. c #A74435",
"@. c #933747",
"#. c #9A3969",
"$. c #8F4A4E",
"%. c #AE5050",
"&. c #B66755",
"*. c #8D546D",
"=. c #A65762",
"-. c #886568",
";. c #97716E",
":. c #AC6F6D",
">. c #9D675D",
",. c #D7614A",
"<. c #328E34",
"1. c #13992D",
"2. c #7D8C34",
"3. c #3D874B",
"4. c #2D9775",
"5. c #1DB166",
"6. c #35A677",
"7. c #29AD6F",
"8. c #49874A",
"9. c #468859",
"0. c #549051",
"q. c #6E8C55",
"w. c #548B6D",
"e. c #658A68",
"r. c #63A251",
"t. c #878D35",
"y. c #9D885A",
"u. c #CD8C66",
"i. c #533183",
"p. c #1D4F88",
"a. c #265989",
"s. c #2A5B8D",
"d. c #2B6A8B",
"f. c #376B84",
"g. c #3A7588",
"h. c #286799",
"j. c #376A98",
"k. c #2C7799",
"l. c #3A7A9C",
"z. c #367598",
"x. c #2B7C8F",
"c. c #2B6AA6",
"v. c #326CA7",
"b. c #2D77A6",
"n. c #3376A2",
"m. c #3A74A5",
"M. c #357BA4",
"N. c #3A7AA5",
"B. c #347AAA",
"V. c #3B7CAA",
"C. c #3574AB",
"Z. c #3B7CB3",
"A. c #2B73B2",
"S. c #1E7092",
"D. c #457789",
"F. c #58778B",
"G. c #467A95",
"H. c #557C94",
"J. c #526D8C",
"K. c #6E6985",
"L. c #447AA5",
"P. c #4C7AB5",
"I. c #696CB7",
"U. c #527DC1",
"Y. c #37839C",
"T. c #349996",
"R. c #308D90",
"E. c #36A38D",
"W. c #3C83AC",
"Q. c #3986A8",
"!. c #3C84B3",
"~. c #3D8BB4",
"^. c #3B89B8",
"/. c #3188A7",
"(. c #478799",
"). c #578598",
"_. c #4C898F",
"`. c #658695",
"'. c #6D8495",
"]. c #4D8DA2",
"[. c #4488A9",
"{. c #578AA4",
"}. c #4C92AB",
"|. c #4793AB",
" X c #5695A9",
".X c #4385B3",
"XX c #428BB3",
"oX c #488DB9",
"OX c #4893B6",
"+X c #549BB4",
"@X c #5799B8",
"#X c #5789B8",
"$X c #6698AB",
"%X c #689DB7",
"&X c #6F94A9",
"*X c #5BA3B9",
"=X c #53ADBA",
"-X c #62A5BC",
";X c #66A7B9",
":X c #74A4B8",
">X c #6FADB5",
",X c #54CDA4",
"<X c #3D92C8",
"1X c #35A8ED",
"2X c #4799C5",
"3X c #569BC3",
"4X c #418FC0",
"5X c #5BA6C7",
"6X c #5DA8D3",
"7X c #53A9D2",
"8X c #63ACC4",
"9X c #67A9C7",
"0X c #76ABC4",
"qX c #68B3CC",
"wX c #74B4CC",
"eX c #64ACD7",
"rX c #69B7D6",
"tX c #7CBDD4",
"yX c #75B9D7",
"uX c #72AFDB",
"iX c #55B2E6",
"pX c #66B7E5",
"aX c #76BBE4",
"sX c #6B97C3",
"dX c #7BC3DC",
"fX c #77C4DB",
"gX c #67C1DD",
"hX c #7AC9E4",
"jX c #72CAED",
"kX c #B9A596",
"lX c #81A6BA",
"zX c #9E9E97",
"xX c #C7AC90",
"cX c #C79D85",
"vX c #81B3CC",
"bX c #86C8DA",
"nX c #95CFDB",
"mX c #A3CED8",
"MX c #8BCEE2",
"NX c #85CBE6",
"BX c #8DD3E4",
"VX c #89D3EA",
"CX c #98D8E6",
"ZX c #9AD9F3",
"AX c #8CD3F2",
"SX c #A4DCE8",
"DX c #A5DCF5",
"FX c #93E2FB",
"GX c #AAE3ED",
"HX c #B4E6ED",
"JX c #A9E5F6",
"KX c #BBECF5",
"LX c #B7E9F7",
"PX c #BEF1FB",
"IX c #C2ECF6",
"UX c #C5F0F3",
/* pixels */
"9 9 4 $ 4 7 7 = = = - # # @ + + X X X X X X X X X X   .   . . . . . X X + + @ @ @ @ + + X X X X + + @ @ # # # # # @ # # % = 7 7 ",
"9 9 v Z Z Z D D G G G G G G m D m m m m m c c m c c t t t w w w 0 0 w 0 0 x z l 0 0 0 0 0 q 0 0 q q q q 0 0 0 0 z 0 0 0 r r 7 7 ",
"$ v 8XqX9X9XuXuXwXwXdXNXNXNXbXMXbXbXtXtXyXyXyXyXeXeX8X9X3X3XOXOX<X<XXX~.4XOX~.XXQ.Q.W.W.W.!.OXOXl.l.z.z.n.m.M.M.W.W.N.m.B.b.r 7 ",
"$ v 9XrXwXuXaXaXtXtXNXNXVXVXVXVXbXbXdXdXfXfXyXyXeXeXeX9X5X3X3X3X2X<XoX4X2X2XOXOX~.Q.!.!.^.XX2X2X.XV.N.N.V.V.W.V.XXXXW.V.Z.B.x 7 ",
"X m 9XyXqXwXyXyXyXyXdXbXtXtXbXbX9X-X].(._.G.(.(.{.{._.(.(.].XXXXXXXX~.[.~.~.W.W.Q.W.W.W.!.!.~.XX[..XB.M.W..XN.N.Q.Q.W.W.V.N.x 8 ",
"X c 9XwXqXwXyXyXyXwXtXdXtXtXbXtX-X%X(.(.g.g.(.(.{.)._._.(.].OX|.OXXX[.XX~.~.W.W.~.~.!.!.^.^.~.~..X.XB.B..XW.N.N.Q.Q.W.W.W.N.x = ",
"X z %X9X-X8X9X9XwXwXqXqXwXwX).).D.g.I I g.g.G.G.(.].(.]. X+X*X*X;X;X}.|.XXXXoX^.~.~.~.^.~.~.^.!.XX.XV.B.M.m.z.z.!.!.B.M.W.l.x - ",
"+ z %X9X-X-X8X8XwXwX9X9XwX9X_.D.f.I I I g.g.G.G.(.].(.].+X+X-X;X>X;X+X}.OXOXoXoX~.~.^.^.~.~.~.!.XX.XV.V.z.z.j.z.!.!.B.B.W.M.x 8 ",
"+ c @X8X@X@X9X9X-X-X%X$XD.D.I K I I g.z.(.(.(.(.].]. X+X*X-X*X-XwXwXwXqX-X-X}.}.~.~.!.^.~.~.XX.XW.W.B.M.z.z.l.l.l.l.W.W.W.B.x - ",
"+ c @X9X@X@X8X8X-X%X X XD.I G G I I g.z.(.(.(.(.].}.+X+X-X-X-X;XwXwXwXwX9X9X+X+XXXXX^.~.~.~.XX.XW.W.M.M.k.z.l.l.z.l.W.W.Q.M.x - ",
"@ z @X3X@X3X+X@X@X@X)._.J D G G g.g.g.g.[.[.}.}.*X*X-X8X8XqXyXtXdXbXbXdXbXbXdXtX9X5X2X2X^.^..X.XV.V.n.z.n.n.v.n.B.B.N.V.W.M.x - ",
"@ c @X3X@X3X@X+X@X@XD.{ D Z G J g.G.l.(.[.[. X X*X*X-X8XqXqXtXdXbXbXbXbXbXMXMXdXqX9X2X2X~.^.W.!.V.V.z.n.M.N.v.v.N.V.V.W.W.N.x 8 ",
"@ z @X3X3X3X@X@X{.(.G c D m G G (.(.].].}.}.*X-X8X8X8XqXqXrXfXfXbXnXnXBXBXCXCXCXbXdX3X2X4X^.V.N.n.n.N.N.W.W.n.n.V.V.W.W.V.b.x - ",
"+ z @X5X5X5X3X@X).(.v z m D G P (.(.].].}. X-X-X8XqXqXqXrXyXtXbXbXnXnXnXCXCXCXCXbXbX6X3X4X^.V.m.n.n.N.N.W.W.N.m.V.V.W.W.B.b.x = ",
"+ c @X3X5X9X5X3X[ H c z v D g.D.(.(.}. X+X*X*X5XqXqXrXyXdXdXtXtXnXBXCXSXCXCXCXCXSXZXNXNX.XC.m.m.V.B.B.V.V.M.M.M.N.N.M.M.z.d.x = ",
"+ c @X5X5X9X3X@XI H c c v D g.D.(.]. X X*X*X*X5XqXrXrXyXdXdXtXtXBXBXSXSXSXCXCXCXGXDXCXMX.XV.L.m.V.V.B.B.M.M.M.M.N.N.n.n.d.d.x 8 ",
"$ v 9XuXpXeXOXQ.m t D D G P g.g.(.(.+X+X*X*X-X8XwXrXfXfXhXhXBXBXnXCXSXSXGXGXGXGXHXHXGXSX:X$Xm.j..X!.m.m.M.B.B.B.d.d.l.l.J S 0 8 ",
"$ v 9XrXpXeXXXQ.c e D G J P g.g.(.(.+X+X*X-X-X8XwXrXfXfXhXhXBXBXCXCXSXSXGXHXHXHXKXKXGXGX:X:XL.j..X!.N.m.B.B.B.B.d.d.l.z.G Z 9 8 ",
"$ v 5X5XeX6Xg.f.t e c m P P P f.(.]. X X-X-X;X;XqXrXfXhXhXNXBXCXSXSXGXGXHXHXHXHXLXLXLXLXSXmX{.L..X!.V.V.W.V.z.j.P J S S v r 9 9 ",
"5 v 5X5XeX6Xg.I i e c m P P P f.(.(. X X*X-X;X;XqXqXdXhXdXbXCXCXSXSXGXGXHXLXKXHXLXLXLXLXGXSX{.L..X!.V.V.V.V.z.j.J G S S v r 9 7 ",
"$ Z rXaX6X5XG t e e e t K P I f.l.(.}.}.}.}.+X+X5X8XfXdXMXMXBXBXZXDXLXKXLXLXKXKXPXKXKXLXKXHX{.j..XZ.V.Z.M.z.J D v v J J v c 9 7 ",
"$ D yXaXeX5XG e e e e i K K f.f.Y.(.}.}.}.}. X+X5X8XfXdXBXBXBXBXZXSXLXKXLXLXIXIXKXKXLXLXPXHX{.j..XZ.Z.V.n.k.J D v v G G v v 9 7 ",
"o m yXdXrX6Xm X w w w t J P f.g.(.]. X+X+X+X}.}.OX+XrXgXnXBXBXBXJXJXKXKXUXUXKXKXKXKXKXKXKXHX[.h.L.N.V.B.d.d.Z v D D t w t w 7 4 ",
"o m yXtXrXeXm X w w t c G P f.g.(.].+X+X*X+X}.|.|.OXqXrXbXBXBXCXJXJXKXKXIXUXKXKXKXKXKXKXKXHX[.h.L.N.V.N.d.P v v D D w q e w 4 4 ",
". m wXtXpXeXK v e e m m G K f.g.+X*X8X8X+X+X|.|.Q.[.*X8XbXBXCXCXSXGXHXHXUXUXUXUXIXIXIXKXIXKX#XV.V.M.N.l.S Z v x c c w e & & 4 4 ",
". m wXtXpXeXK Z e 6 m m G K g.g.*X-X8X8X+X+X|.|.Y.Y.*X8XMXBXZXCXSXSXHXHXIXUXUXUXIXIXKXKXPXLX#XV.W.M.l.z.Z Z v v c c e e & & 4 4 ",
". i 9XqX9X9Xf.J 6 & c m G K g.G.+X*XqXqX;X-X}.(.H U |.+XBXCXCXCXCXCXSXSXnXnXHXHXLXLXGXSXmXnX#XV.W.W.J G v v J J l l 5 5 6 6 5 5 ",
". t 9X9X9X9Xj.J 6 & z m G K g.G.+X@X8XqX;X;X].(.N N Q.}.VXVXBXBXnXnXnXnXnXnXGXHXLXLXSXCXnXnX.XN.W.M.G Z v v J J l l - 7 6 6 5 $ ",
"X t @X3X3X3XW.b.* X c m G K D._.]. X5X8XrXqX_.D.B B g.(.fXfX0X:X| T N T ( } BXCXJXZX$X$X:X:Xl.h.G Z t t v v v Z z z b l - - $ 5 ",
"X t @X3X@X3X!.B.* X c m G H D.G.]. X8X8XqXqX_.D.B M g.(.fXfX>X$XT B > u M [ bXBXJXZX X).&X&Xj.d.v v w t v v v v z z b b - - 5 $ ",
"o t oX3X@XoX.XV.*   * e G K G I (. X0X0X;X%X).H.R R [.|.qX9X{.).f.f.G J h.Q.fXhXJXJX).f.P.C.D t 5 5 t t D D & $ & # < < < - $ $ ",
"o t oX3XoXoX.XL.6 X * 6 G G D G ]. X:X0X$X$X).H.R R |.}.0X0X{.).f.f.J J S.Q.fXhXJXJX{.z.C.v.Z w 5 & t t F D * O * * < < < ; $ $ ",
"o t oX3X^.^..XW.r 7 * * m m m G 8XqX(.H.).).`.F.' [ -X9XmXmX@XOXK G Z D J z.bXNXIXKXqX2XH.J.J A i u 6 6 w 6 > > > > < < - - $ $ ",
"5 t oX3X^.^..XW.Z r * * m m m H 5XqX).G._.H.F.F.' [ ;X0XmXmX@XOXf.J G J d.G.NXNXIXIXrX7XH.D.S Z p p 6 6 p p , , > > < < ; - $ $ ",
"4 r .XoXW.W.M.n.s.a.& : m m [ [ ].].).).D.[ | | M I dXhXbXbX*X@XOXoXd.k.eXpXjXhXJXJXgXiXH.D.v t g g u u h h %.%.` ` B < < < % $ ",
"4 r .XoX!.V.C.n.h.a.& : m N [ D._._.).H.[ [ | | H I dXNXhXhX5X3X2X2XQ.[.pXpXhXhXJXDXjXpXH.D.v t h g g g h @.%.%.*.` B n 2 < = $ ",
"4 r V.^.!.!.Z.Z.A.c.w * m m { [ B n N T [ D.;X;X].+XgXjXNXNXiX1X1X1XjXAXrXrXZXZXCXCXjXjX[.g.Z m ~ -.%.%.:.:.>.>.-.-.E R B b 7 $ ",
"4 r V.!.!.!.Z.Z.A.A.a w m m { { u > B N [ D.;X;X X+XgXgXVXNXiXiXiXiXjXAXrXrXZXZXnXnXjXjX].G.D M X.-.%.%.:.:.:.:.-.-.E E B B q 4 ",
"4 r B.!.C.C.C.C.A.c.s.a.6 e f.f.M M N N u F $X;X5X7X7X7XFXFXVXVXBXMXpXpXwXwXvXvX`.'.MXAX&X`.H R -.>.&.&.cXcXxXxX:.:.=.$.R n q 7 ",
"4 r V.!.M.M.B.B.A.c.h.h.w e g.D.M M N N u M $X%X5X5X7X7XFXFXVXVXBXMXpXiXwXwX0X0XJ.F.MXMX&X`.( R -.;.&.&.cXxXxXxX:.:.=.$.R M q 7 ",
"% x .X4X4.4.B.B.c.c.A.A.a.s.} | n n N H H.H.M H +X*XrXrX5X*X>X:XwXyXaXyX| ( j.j.!.!.sXsX] ] ^ ~ =.=.:.u.zXzXkXkX%.$.` Y ^ ^ e 7 ",
"= x ~.oX7.4./.B.c.c.A.A.h.h.J.[ n u H H H.H.m M  X*XeX6X+X}.$X;XwXwXhXyX| T s.s.W.!.#X#X] ! ~ ~ =.=.u.u.zXzXkXkX$.$.Y Y ^ ^ e 7 ",
"$ l E.E.5.5.R./.k.k.c.c.h.h.m.m.6 * m M I I H ( `.`.F.} | { ).{.qXqXVXVX&X'.D t ).).F m H ( *.*.-.;.u.u.kXkX;.-.E h / / $.O.u 9 ",
"$ l E.E.5.5.R./.k.k.c.c.c.c.C.v.q * m M I I [ [ '.`.| ' ' ' ).).8XeXVXVXlX&X' H `.).i 6 H ( ` *.-.-.u.u.kXkX-.$.h h / / O.O.u 9 ",
"o l 5.7././.Y.k.R.R.v.c.c.h.C.C.* * M (  X$X0X0X%X$XN n N ( $X%XrXfXVXCXBXCXLXLXlX:XF i / / Y Y Y ` *.*.=.=.E Y g g h h +.$.p 8 ",
"o l 5.7././.Y.k.R.Y.v.v.c.c.C.v.e > M N  X XqXqX0X%XH m H ( {.$XqXrXMXVXAXZXPXLXlX&XF i / / Y Y _ _ *.#.#.@.Y Y g g h @.+.+.p 9 ",
"$ l T.T././.~.~./.b.v.v.c.v.c.h.D m B M D.G.+X*XMXnXN.h.L.G.I I  X X].}.rXyXwX0X).H.t 6 d d / / / _ j j g g p g g g @.@.+.+.p 9 ",
"$ l T.T.Q.Q.XX[.M.M.v.v.c.c.h.h.H F M M D.G.|.+XBXMX.XM.L.L.K K {. XG.G.qXqX9XsXH.J.t w d d ( ( / _ j j g p p p g h @.@.+.+.p 8 ",
"% l Y.Q.J.J.J.J.J.J.M.b.x.x.k.j.} } M D g.g.[.[.*X8XtXwXj.j.K I G.G.D.G.).).H.H.f.I ( T ) ) T T W W i.i.d d Y Y $.$.@.@.@.@.u 8 ",
"= x Y.Q.J.J.K.K.K.K.N.M.R.x.d.j.F.} M M g.g.l.[.*X*XfXtXL.j.I I (.(.G.D.H.H.G.G.P K ( ( ) ) W W W W k i.d d Y Y $.$.@.@.@.@.u 8 ",
"= l R._.K.K.&.&.X.K.G.l.T.T.I I G.j.M n M H g.z./.XXrXaX6X6X@X+XpXrX).).%X%XoX!.J G K K K H C C D d d d d F E E E E $.$.o.o.u 8 ",
"= z R._.K.K.&.&.-...G.G.T.T.I ' z.j.M n R N g.g.Y.Q.rXrXeXeX8X-XpXpX$X{.0X9XoX!.J S J J K K C C Z a F F D F ^ ^ E E $.$.o.o.u 8 ",
"7 z Y._.:.:.,.,.t.q.K.K.6.4.S.h.{.`.H M ( (  ...Q.~.6XeX5X6XyXyXrXrXjXhXVXVX%X{.J a t t d L V V V V Q Q z c ( ) ~ ~ ^ ^ $.$.u 8 ",
"7 z R.).:.:.,.,.t.q.K.K.6.4.S.h.{.`.H N ( '  ...(.[.5X5X5X5XrXfXyXyXNXAXAXVX%X$XD r w w d L V V V V Q Q n n ) ) ~ ~ ^ ^ $.$.u 8 ",
"= c G.H.*.*.t.t.t.2.q.e.6.6.{ [ c.c.( T { }  . .....k.M.qXrX6XeXFXFXLXPXDXDXvX:XD y 6 6 d i b b 1.1.8.8.W ] e.e.X.X._ / / / 0 8 ",
"= c G.H.*.-.t.q.2.2.q.0.6.6.{ { h.h.( T { }  . . ...d.k.5XqX6XeXFXFXPXPXDXZX0X:XD y w w m m z b 1.1.8.8.] ] e.e. .X.( / H F 0 8 ",
"# x L..Xw.w.r.r.;.;.e.w.E.E.Y.l.K H T T H (  . .f.a.a.d.d.l.5XeXjXjXJXJXiX7X).F.a a N C 1 1 8.8.3.3.9.9.w.w.8.8.3 ! ' ' ' U 0 7 ",
"# x .XXXw.w.w.r.;.;.w.w.E.E.Y.z.H H T T N (  . .s.a.a.a.d.k.5X5XjXjXZXZX7X<XG.D.L Z C C 1 <.8.8.9.9.9.9.w.w.8.8.3 ! ' ' ' U 0 7 ",
"% l E.E.6.6.I.I.)._.6.7.6.6.4.U n n H H { } ....l.j.p.p.h.h.s.s.j.j.j.j.a.a.A Z H H C 1 Q Q 0.r.r.e.] ] Q Q 1 1 ! ! 3.3.! C l 7 ",
"% l E.E.6.E.I.I.(.(.7.7.6.6.4.U < ; M H { } ....l.n.a.a.h.h.p.A p.p.A A S S s s H H C 1 Q 9.0.r.e.e.] W Q W 1 1 ! ! <.<.! C q 7 ",
"4 x T.T.#XU.P.P.;X=X,X,XE.E.D.D.> : ; ; U U F.`.~.2XqXrXrX6Xh.p.j.j.a.a.a a t t L L ' ' 9.0.e.e.{ [ K K ! ! ! ! 8.8.3 3 Q ! 0 7 ",
"4 x R.T.P.P.P.P.=X=X,X,XE.E.g.K * : : ; C U } F.~.OXqXqXeX6Xs.p.j.h.p.A a a w t a L U ' Q Q ] ] [ I L D ! 3 ! ! 8.3.1 1 ! W q 4 ",
"9 9 l x v v v v b Z b b b l 0 q % % % % - q e e 0 0 c t c t 5 5 5 5 5 5 % % = % = = - ; ; ; ; ; ; - - - ; ; ; ; < < q - q q 8 7 ",
"9 9 8 8 7 7 8 8 8 8 = = = = = = % % % % % % + + X X         X o X X o o # # # # # # # # $ o o o + + # # # # = = % % 4 4 4 4 7 7 "
};
