/* XPM */
static char *_5e8f287074044c9d9eb0bc51a8b18ecve6NWey9waCNSPoE[] = {
/* columns rows colors chars-per-pixel */
"64 64 256 2 ",
"   c #020104",
".  c #04030A",
"X  c #0A060B",
"o  c #0B090E",
"O  c #0B0204",
"+  c #150507",
"@  c #0D0D12",
"#  c #020617",
"$  c #110F14",
"%  c #170317",
"&  c #0D1516",
"*  c #131216",
"=  c #16151A",
"-  c #18171C",
";  c #16191B",
":  c #1A191D",
">  c #171616",
",  c #221B1B",
"<  c #351515",
"1  c #1D1C22",
"2  c #191927",
"3  c #151A37",
"4  c #221E22",
"5  c #261D2A",
"6  c #241B33",
"7  c #3A1D35",
"8  c #1C222F",
"9  c #232125",
"0  c #252529",
"q  c #2B252B",
"w  c #2A292D",
"e  c #2A2427",
"r  c #32292B",
"t  c #2D2C32",
"y  c #272437",
"u  c #332D34",
"i  c #323235",
"p  c #3D353B",
"a  c #39373A",
"s  c #2D3336",
"d  c #12211A",
"f  c #43393C",
"g  c #4C2F31",
"h  c #5C301F",
"j  c #734A3A",
"k  c #5C4438",
"l  c #311C47",
"z  c #182646",
"x  c #182B53",
"c  c #112C55",
"v  c #3A3B43",
"b  c #2B3856",
"n  c #342C4D",
"m  c #153669",
"M  c #0D3675",
"N  c #122B54",
"B  c #463D42",
"V  c #4D324D",
"C  c #34414B",
"Z  c #124379",
"A  c #494447",
"S  c #574C57",
"D  c #58545A",
"F  c #514A4D",
"G  c #765B54",
"H  c #6C514D",
"J  c #7D6458",
"K  c #5B5767",
"L  c #67556A",
"P  c #6B6467",
"I  c #766F74",
"U  c #845C52",
"Y  c #89594B",
"T  c #886758",
"R  c #9A6955",
"E  c #99725D",
"W  c #94674C",
"Q  c #A6745B",
"!  c #A46D5D",
"~  c #876963",
"^  c #976966",
"/  c #8B7369",
"(  c #977669",
")  c #857877",
"_  c #977B77",
"`  c #906B77",
"'  c #A36C64",
"]  c #A87869",
"[  c #A97B77",
"{  c #B67C79",
"}  c #B27B68",
"|  c #948276",
" . c #B7866B",
".. c #A88579",
"X. c #B78878",
"o. c #A6806C",
"O. c #B0845F",
"+. c #C68B78",
"@. c #CA9179",
"#. c #D69577",
"$. c #CD8D6C",
"%. c #0D3E86",
"&. c #132FB8",
"*. c #134A90",
"=. c #356596",
"-. c #065BBC",
";. c #1150B3",
":. c #1662B8",
">. c #3263B9",
",. c #7A738A",
"<. c #6063AC",
"1. c #092FD4",
"2. c #002BEC",
"3. c #032AE6",
"4. c #0137EA",
"5. c #012CF4",
"6. c #032BFB",
"7. c #0227F7",
"8. c #0133F5",
"9. c #023BF5",
"0. c #033CFA",
"q. c #0534F8",
"w. c #1237E8",
"e. c #162FD2",
"r. c #0757D5",
"t. c #0654C8",
"y. c #0468D5",
"u. c #1369D0",
"i. c #2D70CD",
"p. c #0549EA",
"a. c #0657E9",
"s. c #0142F4",
"d. c #024BF3",
"f. c #0546F9",
"g. c #0155F5",
"h. c #015BF5",
"j. c #0255FB",
"k. c #0A55FE",
"l. c #015BFB",
"z. c #0A5BF8",
"x. c #1552F2",
"c. c #3055EE",
"v. c #0765EA",
"b. c #1168E8",
"n. c #1276E8",
"m. c #0263F5",
"M. c #026BF4",
"N. c #0163FB",
"B. c #026BFB",
"V. c #0B64F7",
"C. c #1269F6",
"Z. c #0273F4",
"A. c #027CF5",
"S. c #0273FB",
"D. c #037BFD",
"F. c #0B78FA",
"G. c #0B76ED",
"H. c #3A75E9",
"J. c #3978F7",
"K. c #2D6DEF",
"L. c #2548D8",
"P. c #5476D0",
"I. c #6678CF",
"U. c #4779EC",
"Y. c #467CF7",
"T. c #517BE9",
"R. c #5252D6",
"E. c #8C7C8A",
"W. c #A87D87",
"Q. c #846FA8",
"!. c #8579C3",
"~. c #7086AE",
"^. c #668188",
"/. c #0182F5",
"(. c #0283FB",
"). c #038BFB",
"_. c #0689F8",
"`. c #1684E9",
"'. c #3A85F9",
"]. c #338EEF",
"[. c #3591E5",
"{. c #5490D5",
"}. c #708BD0",
"|. c #4986FB",
" X c #5586FA",
".X c #4E8AED",
"XX c #6D87E7",
"oX c #53AAF7",
"OX c #66B8FC",
"+X c #6FAFEA",
"@X c #73C5FF",
"#X c #8A8588",
"$X c #9A9597",
"%X c #94898F",
"&X c #A9898A",
"*X c #BB8885",
"=X c #B09393",
"-X c #9190B0",
";X c #A89CA7",
":X c #B195AA",
">X c #ABA4A8",
",X c #B6A8A7",
"<X c #B4B1B7",
"1X c #BFA49D",
"2X c #C99686",
"3X c #D59A85",
"4X c #C89C96",
"5X c #C58F89",
"6X c #D9A795",
"7X c #C19EAF",
"8X c #C6A5A9",
"9X c #C6BABB",
"0X c #D8B2AF",
"qX c #E3AC96",
"wX c #8E94CF",
"eX c #97ACD3",
"rX c #B2ADD4",
"tX c #93B9E4",
"yX c #ABB9E8",
"uX c #A89ED0",
"iX c #C7B8C4",
"pX c #C8BAD4",
"aX c #B8CACC",
"sX c #88D3FF",
"dX c #AFC7EF",
"fX c #A7E7FF",
"gX c #BBF6FF",
"hX c #B0EDFF",
"jX c #98D8F4",
"kX c #CAC5C8",
"lX c #D6C8CA",
"zX c #DBD5D7",
"xX c #CFCFD4",
"cX c #E5D9DA",
"vX c #ECD3D3",
"bX c #F4E3DE",
"nX c #D1CAEA",
"mX c #E4DCE1",
"MX c #EEDEEF",
"NX c #D5F8EC",
"BX c #C3FCFF",
"VX c #CBFCFD",
"CX c #C9F7F9",
"ZX c #D3FEFC",
"AX c #DCFDFD",
"SX c #D6FAF6",
"DX c #D0ECEA",
"FX c #EAE5E6",
"GX c #F6E9E9",
"HX c #F5ECF3",
"JX c #E4FEFD",
"KX c #E7F9F9",
"LX c #FAF7F8",
"PX c #EEF2EB",
"IX c #D0E0DD",
"UX c #D1C9BE",
/* pixels */
"k.j.l.h.h.h.j.k.f.4.9.0.9.f.s.s.s.x.J.H..X.XU.H.|.U.H.H.Y.U..XU.H.U. X XY.U.U.P.I.tXCXSXNXNXNXCXgX+X&.x.k.k.C.K.J.J.K.C.V.l.z.z.",
"k.j.l.g.h.h.j.k.d.4.0.0.0.f.f.f.s.p.J.'..X.XH.H.H.|.|.|.Y.H.U.|.|.Y.H.H.U. X XXXI.tXSXSXNXNXZXVXgX+X&.x.d.d.d.x.a.a.a.a.a.g.h.h.",
"k.j.g.g.g.g.j.k.f.4.8.q.8.0.9.s.p.p.J.|.|.'.H.K.H.Y.Y.Y.K.K.J.|. X|.J.K.J. X XT.I.yXJXKXNXZXVXBXgX+X;.x.d.d.p.p.p.p.a.a.g.l.V.V.",
"g.g.g.g.g.g.g.j.s.3.2.2.2.8.8.9.4.p.'.|.|.'.J.K.Y.|.|.Y.J.K.Y. X|.|.J.K.J.|. XXXI.yXKXKXNXZXVXBXgX{.;.x.d.d.d.p.p.a.a.a.g.h.V.V.",
"g.g.g.g.g.g.g.j.s.2.2.5.5.6.5.9.1.x.|.'.].'.'.'.J.H.U.T.U.U.T. XT.T.U.Y.|.|.Y.P.}.yXKXKXDXZXVXgXgX{.t.z.d.d.k.d.d.p.a.m.h.l.V.V.",
"g.j.j.g.g.g.j.k.s.2.5.7.7.7.6.q.1.x.|.K.K.'.'.|. XH.i.P.I.I.P.P.<.P.P..X.XU.U.XX}.dXJXKXDXZXVXBXgX{.t.z.d.d.k.j.k.j.h.m.N.N.V.C.",
"j.j.j.g.g.l.j.k.0.2.5.7.7.7.6.q.3.x.|.K.K.'.|.|.H.>.<.wXyXnXrXrXuXuXeXwXI.>.>.P.}.dXAXAXDXZXZXBXhX{.t.z.g.j.k.k.k.k.l.N.g.h.V.v.",
"g.g.j.g.g.j.j.k.0.2.7.6.6.6.6.q.3.x.Y.J.J.|.|..X{.}.dXMXMXzX8X8X7X7XpXnXyX}.<.I.}.dXAXAXNXAXZXBXhX{.r.V.j.j.k.j.k.k.l.N.l.N.V.V.",
"j.j.j.g.g.l.k.k.0.2.7.7.6.6.6.6.3.x.Y.|. X.XP.}.eXpXlX0X0XqX2X3X2X5X*X1XpXnXrX~.~.dXAXZXDXNXJXCXhX{.t.z.j.l.j.j.g.j.l.N.l.h.m.V.",
"j.j.j.g.g.l.k.k.0.2.7.6.6.6.6.6.2.x.|..X{.}.wXrX<X8X6X6X3X@.$.#.+.@.@.+.5X8XiXpX-XdXAXAXNXNXNXCXhX{.r.V.l.l.j.j.j.l.N.N.l.l.m.v.",
"j.j.j.g.l.l.k.k.0.2.7.6.6.6.6.8.2.x. XXX}.eXrX0X6X6X3X#.#.3X3X+.3X@.$.$.$.2X4X8X;XxXJXSXNXZXSXBXfX[.r.V.l.l.l.l.j.l.N.N.l.g.h.v.",
"j.j.j.g.l.l.k.k.0.2.5.6.6.6.6.8.2.x. X}.-X<X8X4X3X#.#.#.2X3X3X+.+.+.$.#.#.#.3X4X8XkXKXJXZXCXZXgXfXi.r.V.l.l.l.l.l.l.l.l.l.l.h.h.",
"j.j.l.l.g.l.k.k.f.2.5.6.6.6.6.8.3.c..X}.-X,X4X3X#.qX3X6X6X4X=X4X4X5X+.$.$.@.2X4X=X;XxXKXNXCXVXBXfXi.r.z.l.l.h.h.l.l.l.l.l.l.h.z.",
"j.l.l.l.l.l.k.k.s.2.6.6.6.6.6.8.3.c.XXwX;X=X*X3X@.qX*X..&XW...&X..=X*XX.2X6X6X4X8X=X$XPXDXAXVXBXfXi.r.z.l.l.h.h.g.l.l.l.l.l.l.V.",
"l.l.l.l.l.l.k.k.s.2.5.6.6.6.6.8.1.c.XXwX:X=X*X*X*X..g + O O + O + H ~ G G ~ ` ` &X>X%XzXPXJXCXBXfXu.a.z.l.N.m.h.h.l.l.l.l.l.l.z.",
"l.j.l.l.l.l.k.k.s.2.8.8.6.6.5.8.1.c.XXwX:X=X7X&X&XF O @ > O + O O B B + O O O X X I #X<XKXSXZXVXfXu.a.V.m.m.m.h.l.l.h.l.l.l.m.m.",
"l.l.k.k.l.l.l.k.s.2.5.8.8.8.8.q.1.c.}.-X:X:XE.V V I P p , , w I H g f + q D a . 2 . K <XAXSXZXgXfX-.b.V.m.m.m.m.N.N.m.m.N.h.m.V.",
"l.l.j.j.l.l.l.k.s.2.5.8.8.8.5.q.4.L.wX-X,.L L n y . v B F D 6 ,.g G _ + I E.S I #XK & ~.AXAXZXVXjX-.b.V.v.m.m.m.N.N.m.m.m.m.m.m.",
"l.g.g.h.l.l.l.k.f.2.5.8.8.8.5.w.1.R.I.<.L S V B f r O + % 6 l % < _ &XL % 6 l V n V # ,.JXAXCXBXjX-.b.V.v.M.m.N.N.N.m.m.m.m.m.M.",
"l.g.g.h.l.N.l.k.s.2.8.8.8.8.5.w.&.I.!.L E.&X_ &XT h < g 7 V l V H [ =X` 7 V l l l n # ,.DXJXSXVXsX-.b.V.v.M.m.N.N.N.m.m.m.m.m.M.",
"l.h.g.g.m.N.N.z.s.2.8.8.8.8.5.e.R.<.E.W.&X=XX.X.O. .h h < g S S ^ ..=XW.L V V V V 7 % ;XKXKXSXBXsX-.b.V.m.m.m.N.N.N.N.m.N.N.M.B.",
"m.m.h.h.m.N.N.l.s.2.8.q.8.8.5.e.<.L ~ _ _ *XX. .$.$.Q E T T G ( X.*X[ 8X~ H V g V H E.9XmXKXAXVXsX-.b.V.v.m.m.N.N.N.m.m.N.N.B.F.",
"M.M.m.m.m.N.N.l.s.4.8.0.q.q.q.e.<.` ..( [ [ X.+.+.} +.+. . .Y E Y ^ [ ] [ [ Y ^ ..*X=X_ F IXDXVXsX-.b.V.m.m.m.N.N.l.m.m.N.B.B.F.",
"Z.M.M.M.M.M.N.N.s.4.9.0.0.0.q.e.<.` _ T X.W.{ { +.2X5X5X} Q R j h j Y j Y ! +.+.+. ...=XF aXJXBXsX-.b.V.m.m.m.m.l.l.m.m.N.B.F.F.",
"S.S.S.M.Z.S.B.N.d.4.9.0.0.0.q.e.<.Q.` ~ [ { *X*X*X5X*X[ ] ] ] ] ] ' ' ' R !  .+. .@.X...D aXJXBXsX-.b.V.m.m.m.m.l.l.h.m.N.B.B.S.",
"D.D.F.F.D.D.D.B.d.4.9.9.9.0.9.w.&.<.Q.` *X{ { X.*XX.....} } } } ' ] X.X.X.{ +.X.+.X..._ ) KXNXVX@X-.b.V.m.m.m.N.l.l.m.m.N.B.B.S.",
"(.(.F.F.F.D.D.F.g.p.s.s.9.s.9.w.&.I.-X$X&X[ [ X.X.o.o.o.E W R R ! ' ' ' ^ ' { *X*X[ =X) kXJXNXBX@X-.b.V.m.m.m.N.l.N.m.m.N.B.B.Z.",
"A.A.A.A.A.D.D.S.g.d.d.s.s.s.9.p.1.T.}.-X%X_ [ X.o.E o.o.R W Q Q } ] ] ] ^ ^ ^ [ W.&X&X;XKXSXZXgX@Xt.b.V.m.V.m.N.N.N.N.m.N.M.M.M.",
"A./.A.A.A.(.D.S.h.g.k.g.d.d.p.p.1. X}.~.,.E.W...] ] ....E Q  .} Y Y T ] _ ^ ` &XW.=X%XmXKXJXCXBX@Xt.b.m.V.m.h.N.l.N.N.m.N.M.M.M.",
"/./.A.A././.D.S.m.g.k.k.g.g.d.p.1.|.oX{.~.,.E.( ] Q ] ( ( ]  .]  .] ( [ [ ^ ` &X&XE.>XLXKXJXCXBX@Xt.C.m.N.V.h.m.l.N.N.N.N.M.M.M.",
"/./.A.A./.(.(.D.m.g.l.l.j.j.j.a.t.|.OX+X}.~.E.^ Q R R ( _ ..X.{ ] ] ] o...( / _ ../ UXPXKXAXVXgX@Xt.C.m.N.V.g.m.l.N.N.m.N.M.M.M.",
"/./././.(.(.(.D.m.a.l.h.g.h.h.z.r.|.OXOX+X~.) ^ Q R T ~ ( ( ^ ] ( ] ( / ( ( / ( | | cXLXNXAXZXgXOXy.C.m.N.N.h.N.N.N.N.M.M.M.M.M.",
"/./././.(././.A.v.v.v.v.v.v.a.v.r.].@X+XtX~.I / T T U G T T T U T G G ~ / ~ / / I $XPXPXSXJXZXBXOXy.b.v.V.h.h.N.N.M.M.M.M.M.M.M.",
"_._._.).).(.(.(.M.M.M.M.M.M.M.G.G.oXoX+XtXaXI I _ T G U T G H H H H H H ~ J G ) P kXLXKXSXAXSXgXOXy.b.v.V.m.N.B.B.B.Z.Z.Z.S.B.B.",
"_._.).).).).).).D.D.D.S.D.D.D.Z.y.[.sX+X=.KXzX%XH T / T T T G j j j j T T J / ) I zXLXDXJXAXCXBXOXu.n.b.C.V.m.B.S.S.S.S.S.S.S.S.",
").).).).).).(.(.M.M.Z.F.F.F.F.n.u.oX+X=.3 IXFXvX1X( G T ( ( T T T E ( ( / _ _ J 9XLXPXJXNXZXZXgXOXu.n.b.C.M.M.S.S.S.S.S.S.S.S.S.",
").).).).)._./.G.v.y.u.u.r.r.t.-.*.{.=.z # >XFXvXbXbX0X_ G G ~ ( T U ( T ( _ G ,XmXxXKXDXSXJXZXgXoXy.n.Z.B.B.B.B.S.Z.Z.Z.Z.Z.F.F.",
").)._._._.`.`.`.u.:.;.*.*.*.%.%.M c c b y p cXGXbXbXGXGXvX=XJ H ( T E ( T H | GXFX>XIXKXJXAXCXBXoXy.G.Z.S.B.B.S.S.S.Z.Z.Z.Z.F.F.",
"(.(./._.`.n.u.:.*.M m m b b b b x x b y i   >XHXbXGXGXGXLXGXvX,XJ J T J k _ bXGXFXaXs <XaXDXZXBXoXy.n.G.Z.Z.S.S.S.S.Z.Z.A.D.D.D.",
"n.`.`.`.i.:.*.M m b b n v a i t y n y y u > S cXGXGXGXGXGXGXGXGXbX=X=X/ _ bXLXcXGXzX0 # & C ^.tX{.-.i.u.b.n.b.G.Z.Z.Z.Z.A.D.D.D.",
"*.*.=.*.Z m c x n l y y t w e 0 t y 5 u e r O <XLXcXGXHXGXGXGXLX9XF %X,X%XiXLXFXGXFXK 2 F v # # m Z *.*.;.:.u.u.b.n.G.Z.Z.S.D.D.",
"c c x x x z z y y 6 5 5 4 : * * 9 w e q e i X P zXLXHXcXHXPXLXlX  A r p p = ;XLXHXHXI . t v C C z z z c m M *.*.:.u.u.n.n.G.F.F.",
"3 3 3 3 y y 8 2 2 4 1 : ; & & ; , e e 9 9 i * i kXGXHXHXFXHXFXD v S A S S 5 X iXHXLX;X  i t t t v y 6 3 z x c m M %.*.;.:.u.u.u.",
"y 6 2 6 y 2 1 : 1 : : > & & d 0 , , 4 9 1 9 0 q $XLXHXLXFXPX$X  F F F S K P P p lXLXkX  u 4 9 9 u f p y 2 3 z z N c m M *.*.%.M ",
"5 2 - 2 1 ; ; ; : : - * o X & 1 4 , 1 9 1 1 s : #XiXHXLXLXlX  i v F y a B ;X;X<X$XmXmXu $ 9 9 4 > q u 4 = 2 2 2 3 3 z z x x z 3 ",
": > ; ; ; & & > > ; : = @ X @ - 4 9 1 1 1 1 t   ) ,XFXLXcX;XP A u w F u p %X>X>X>XiXzX#X  e ; o * * * = = * = = 2 2 2 2 6 y y 2 ",
": - > * & & & * * > : > $ o $ 1 : 9 1 2 1 2 0   D 9XlXGXvX>X$X#XI A A f r $X<XkXzXkXkX$X  q 9 : 1 > * = > = * - - 2 2 2 2 1 2 * ",
"= > * $ $ & > * > > > * o X $ : > 1 ; 2 2 ; 0 : r ,XlXcXiX9X<X>X;XF B F r P kXlXzXcXzXE.  : 9 = = > - = > = > * * = = = - 2 - * ",
"> > * @ @ * > = > ; ; * @ @ * - > ; ; 1 1 : 2 4   <XiXcXcXlX9XlX$XF A B A   ;XzXzXcXzXP   ; : > : > ; > > > = - * = > - : 2 > @ ",
"* > > $ @ * > > > : : = @ @ * - : ; > : : : 4 e O $XlXzXzXvXlXlX) p F f p f F xXcXmXxXB   : @ : - > - - : 2 - > * * = > : : = @ ",
"@ > - * @ $ > : - : : = @ @ * - : > > : : - 4 e   I zXzXcXzXcX,XF f A B f D 9 ,XFXzXxX  : * $ - > > > > : : : > * * * > : : = o ",
"@ * = @ @ * > : - : : > $ @ * - > > ; : : : : 9 @ p 9XcXcXcXvX%Xf F A B A A u #XzXmX<X  0 ; . - > : > > > = : - = = * > : 2 = o ",
"@ @ @ @ @ > - - > - - = * * > : > > ; : : : : 4 e o #XmXlXcX9X) B B A p p f B K kXFX#X  9 o X 1 > 1 1 9 1 * - : > > > > : 2 > @ ",
"@ @ o X @ - : > = > - = * * > : : : > > : 1 1 4 e * r cXcXzX9XI p p p f p f A w kXxXF   9 X * * > 1 1 i t = : : : : > > : : > * ",
"* * @ X @ > : > * > > > = = - 1 1 : - : 1 9 9 9 : e   #XcXlXkXP , B u A A f A * >X>X. : @ : @ @ * > > i i = : : : 1 : - - : : > ",
"> = @ o @ > - > * > > > = > : 1 : : : 1 0 w 0 4 4 9 @ * kXzX9XP > A f i B B p e #XE.  0 * @ * @ * @ X w t * : 1 1 1 1 : - : : : ",
"@ $ o o * > * > - > - - - - - > : - : 9 w w 9 1 : - 9   I mXkXP r A a p B v A i D w @ * > @ @ * w - o 1 w * > 1 1 = 9 4 9 > > 2 ",
"@ * $ @ * * * - - - - - > - - - : > > : 4 9 4 1 ; 4   0   <XxXP w A a a a a A a w = o $ * * $ @ @ > = > 0 1 9 - u t t 9 0 t a 0 ",
". o X o * > > : - - - - - - - - : > = > - 2 : : 9 > @ :   a mX#X* A v i A a a v * @ * * $ * * X o - > o 1 : @ @       o .   o   ",
"> * o @ - : * $ - - - - - - - - : - > = > > : : 1 > @ @ 9   I %X= a a a A v i w * * > * @ * * o @ > > * 1 1 @ P >X<X<X<XkXxXkXI ",
"@ o . @ - : > : - - - - - - - - : - > > = - - : = : @ X * 1   v a i i a a v i X * @ $ * @ $ * @ * > : : > :   ;XHXLXHXHXHXFXFX$X",
"= = * * * @ @ > - - - - - > > > > > > > > - - - : - *   @ * @   w a a i a t > @ * @ @ * * $ @ @ . $ : 1 1 w   ,.xX<X$X,.A   .   ",
"        o o o > > > > > > > > > = * * = = > - - : 1   * @   w @ X w a i i : . ; > * * = * * @ X $ = > > @ *   @ .       . @ 9 9 ",
"K F a i i 0 > * > > > > > > = = = * $ * = - - - > ;   o * * . & * . w a @ @ : o @ $ * @ @ * = @ o $ : 4 : t S v B t t 0 w 1 > @ "
};
