/* XPM */
static char *_1ff0416de6c4a04e257c15d9d6ac6f9aiO1XMJLT6PR8zcT[] = {
/* columns rows colors chars-per-pixel */
"64 64 245 2 ",
"   c #020003",
".  c #02010A",
"X  c #0C0D0C",
"o  c #0B0207",
"O  c #0E110D",
"+  c #11130E",
"@  c #16190E",
"#  c #0A0C16",
"$  c #0C1313",
"%  c #0C151C",
"&  c #0D191B",
"*  c #0A161A",
"=  c #131613",
"-  c #161915",
";  c #181A16",
":  c #161A1A",
">  c #1B1D1C",
",  c #17151A",
"<  c #130C13",
"1  c #300A0C",
"2  c #1C211E",
"3  c #14241D",
"4  c #0F231A",
"5  c #21231D",
"6  c #0A1A2C",
"7  c #0A1826",
"8  c #131B24",
"9  c #1C1D22",
"0  c #151A2A",
"q  c #0C1D33",
"w  c #0A1E37",
"e  c #131E31",
"r  c #251C26",
"t  c #281F30",
"y  c #1D2123",
"u  c #1B232B",
"i  c #182627",
"p  c #0E2136",
"a  c #14243C",
"s  c #1A2537",
"d  c #0D212F",
"f  c #222324",
"g  c #26282A",
"h  c #36282C",
"j  c #222B3C",
"k  c #282935",
"l  c #372B35",
"z  c #37353A",
"x  c #2B3134",
"c  c #4D1413",
"v  c #4E2E35",
"b  c #693937",
"n  c #763835",
"m  c #6A2D2A",
"M  c #6D191E",
"N  c #75413C",
"B  c #47423F",
"V  c #1B2B43",
"C  c #1A2C49",
"Z  c #1F3147",
"A  c #152D52",
"S  c #222D44",
"D  c #262A4A",
"F  c #263349",
"G  c #363648",
"H  c #233554",
"J  c #24365C",
"K  c #293958",
"L  c #373A55",
"P  c #2D2D51",
"I  c #1F3F6D",
"U  c #263A65",
"Y  c #2B3B64",
"T  c #243E6B",
"R  c #2A3B69",
"E  c #263661",
"W  c #2F3F6B",
"Q  c #4B3A48",
"!  c #793E44",
"~  c #394258",
"^  c #2B426C",
"/  c #274168",
"(  c #34436C",
")  c #384569",
"_  c #264373",
"`  c #2B4374",
"'  c #294779",
"]  c #324572",
"[  c #344973",
"{  c #3A4B75",
"}  c #3D517D",
"|  c #47465A",
" . c #554957",
".. c #504952",
"X. c #784747",
"o. c #664A57",
"O. c #68565C",
"+. c #795559",
"@. c #6E4B50",
"#. c #494968",
"$. c #554C69",
"%. c #575769",
"&. c #494B73",
"*. c #495476",
"=. c #595976",
"-. c #4F506C",
";. c #675867",
":. c #795A65",
">. c #645B75",
",. c #5E6175",
"<. c #796369",
"1. c #67657A",
"2. c #776977",
"3. c #6E6A74",
"4. c #873637",
"5. c #B1293F",
"6. c #99182A",
"7. c #854335",
"8. c #B0334A",
"9. c #993346",
"0. c #C9384A",
"q. c #D13751",
"w. c #EC3C5D",
"e. c #874948",
"r. c #94554C",
"t. c #895858",
"y. c #995B59",
"u. c #8D4F4A",
"i. c #A15A57",
"p. c #AB4758",
"a. c #966359",
"s. c #A9675D",
"d. c #875963",
"f. c #975B63",
"g. c #B25665",
"h. c #866669",
"j. c #9A6767",
"k. c #876B77",
"l. c #986B73",
"z. c #977676",
"x. c #8B7376",
"c. c #A76868",
"v. c #B66D6A",
"b. c #A7736B",
"n. c #B67469",
"m. c #A87777",
"M. c #B87876",
"N. c #AE6C74",
"B. c #D6465A",
"V. c #D35269",
"C. c #C67B7B",
"Z. c #C7706B",
"A. c #E8526E",
"S. c #BA847A",
"D. c #AD817E",
"F. c #C9867A",
"G. c #D28A75",
"H. c #284A83",
"J. c #4E5B83",
"K. c #5C6382",
"L. c #6B6984",
"P. c #767486",
"I. c #726D81",
"U. c #655F81",
"Y. c #967D84",
"T. c #897B88",
"R. c #A67B84",
"E. c #B67D83",
"W. c #C97C83",
"Q. c #E77586",
"!. c #978388",
"~. c #9A8A95",
"^. c #98929C",
"/. c #8C868B",
"(. c #A98787",
"). c #B98787",
"_. c #BA8A94",
"`. c #A8969A",
"'. c #B99799",
"]. c #A58C97",
"[. c #9996A3",
"{. c #A89AA5",
"}. c #B89BA7",
"|. c #B9A5A8",
" X c #B9AAB6",
".X c #B0AAB1",
"XX c #C98888",
"oX c #D78B89",
"OX c #CB948D",
"+X c #D7968B",
"@X c #C99797",
"#X c #D89796",
"$X c #CB8E93",
"%X c #E3998E",
"&X c #E59A97",
"*X c #E58892",
"=X c #D7A39A",
"-X c #E7A49B",
";X c #F2AA9D",
":X c #EAA28E",
">X c #CF9DA3",
",X c #C6A9AA",
"<X c #D7A7A7",
"1X c #C6ABB5",
"2X c #C7B5BB",
"3X c #D3B7BB",
"4X c #DAB0AF",
"5X c #EBABA3",
"6X c #E7A9A7",
"7X c #F3ACA5",
"8X c #EBB3AB",
"9X c #F3B3AC",
"0X c #F4B3A9",
"qX c #EAACB5",
"wX c #ECB8B5",
"eX c #F7BAB6",
"rX c #FEACB9",
"tX c #ED9EA1",
"yX c #FAC2BB",
"uX c #BDB9C3",
"iX c #C7BAC4",
"pX c #D4BBC7",
"aX c #F7BCC3",
"sX c #F7BDCB",
"dX c #C5C3C9",
"fX c #D7C6C9",
"gX c #CAC8D3",
"hX c #D6C8D6",
"jX c #D7D4D9",
"kX c #CED5D3",
"lX c #FAC5C9",
"zX c #FCC9D3",
"xX c #E7D7DA",
"cX c #F9D4DA",
"vX c #E8CBD3",
"bX c #DCD8E3",
"nX c #E8DAE6",
"mX c #F7D9E6",
"MX c #EFD7EA",
"NX c #DDE2E6",
"BX c #E8E5E9",
"VX c #F6E2EA",
"CX c #EAE9F2",
"ZX c #FAE9F5",
"AX c #F4F6FA",
/* pixels */
"& & & & & & & & : $ 8 u 8 8 u u 0 9 . < ;.{. X XuXuXiX2X2X1X|.|.!.O.l f k j s q 6 6 6 d 6 * * 7 7 7 7 6 6 6 6 6 7 7 7 6 6 6 6 6 ",
"& & & & & & & & : 8 8 % # % 0 u u # G ^.gXhXhXiXiXiXiXiXiX3X3X3X,X,X~...9 8 e e q 6 6 d d 7 7 * 7 7 7 7 6 6 6 6 7 7 6 6 6 6 6 6 ",
"& & & & % % % % : 8 % * 8 0 7 * . ;..XiXiX1X1XiX2X2XiXfXfX3X3X3X,X3X3X{.;.t 8 s 6 7 7 7 6 d 6 7 7 6 6 6 6 6 6 6 6 6 6 q q q q q ",
"% % & & & & & & % % * 8 s 8 % k /..X X XhXpX1X2XfXfX3X2X,X@X'.'._.(.'.3X`. .r u 0 6 6 6 7 q p d 6 6 q q q q w q q q q q q p q p ",
"% % % % % % % % 8 * * 8 * . k P.{.{. XpX1X}.1XpX3X3X,X@X@X@X#X<XOX).D.(.(.k...r g s s a q w w p p q w q p p a a a a a a a a a a ",
"% % % % % % % % u * # % * % ..{.^. XiX1X1X1X,X>X'.@X,X<X4X8X8X8X<X<X@X).(.(.<.v r 0 e s V w w V a a a a a a V a V V V V C C C C ",
"% % % % % % % % 8 * * & u ..P.^.^. X}.}.,X'.).<X<X4XwXyXeXwX6X-X8X8X5X6X<X@Xz.:.Q t 0 s C V V A C C C C C C C V C C C Z Z Z H F ",
"% % % % % 7 7 7 # 8 0 8 g ;.^.~.].].'._.).$X<XwXwXwXwXwX9X9X9X9X0X5X#X+X=X=X).z.z...t j H C A A C C C C C C C C H H H H H H H H ",
"% % % 7 7 7 7 7 7 # 0 # G 2././.`.].R.R._.>X6X8X6X6X9X9XeX9X9X0X7X;X-X-X-X+X).D.l.x.Q k H H A J J H H H H H H H H H H H H H H H ",
"% % 7 7 7 6 6 6 e s g , %./.x.2.!.R.R._.>X6X6X6X6X5X9X9XeXeX9X9X7X7X;X;X-X+XF.S.l.z.O.G F K J J J J J J J J J J J J J J J J J J ",
"8 8 8 8 6 6 e e e s 8 g P.^./.Y.].(._.@X<X#X#X&X5X5X9XeXeXeXeXeX9X0X7X;X-X%XG.S.b.z.k...G K J J J J J J J J J J J J J J J J J J ",
"8 0 0 e e p p p p 0 0 %.{.`.`.|.'.(.$X#X#X#X+X-X5X5X9XeXeXeXeXeXeX9X0X7X;X%XG.F.n.j.x.;.L L K J J J E J E J E J E J E J E E E J ",
"0 u u u s s a s S s %.{. X{.|.,X'.(._.@X+X#X&X7X5X8X9XeXlXlXaXaXeXeX9X0X;X:XG.G.n.a.h.<. .L K J U U U U U U U U U U U U U U E E ",
"u s s s s s V V S S P..X{.~. X,X'.D.@X#XXX+X%X-X5X8X9XyXlXlXlXlXaXwX9X0X;X:XG.G.F.a.t.h.;.G K K U U U U U U U U U U U U U U U U ",
"k k k j s V V S V j 1.T.T./.`.,X'.(.#X#XF.+X+X#X5X8XeXlXlXzXzXzXaXwXwX0X;X:XG.G.G.s.u.h.<.G L K U R R R R R R R U U U U U U U U ",
"j j j j S S S S S s =.3.2.x.Y.|.'.m.@XOXM.#X&X-X5X9XeXlXlXzXzXzXaXeXwX0X;X:XG.G.F.S.t.x.<.G ~ K Y U R R U U U R U U U U U U U U ",
"s s s j j j S S D j | >./.~.Y.(.,X).@X@XXX$X-X6X9XyXyXwXwXyXwX8X8X5X7X-X-X+X+X+X+Xb.t.(.2.F L ) K Y Y / / / / / R R U E E E U U ",
"V V s j j j j S D S L 1./.].]._.'.>X<X).#X#X#X6X8X8XyXlXlXeXwXeX0X;X-X+X-X-X-X=X=X8X(.k.>.L H ^ Y Y Y / / / / / R R Y Y U U U U ",
"V V s j j j S S F D G >.k.k.z.m.(.@X4X).#XXX#XeX<X<X8XwXwX6XqXeX-X:X+XXX6X8X6X#XOX).D.<.| L Y U Y ^ R U / I / R U R R R R R R R ",
"V V V S S S S S S j G >.<.h.l.E.l.t.m.$X#XXX$XOX).).S.m.m.).XXXX+X-X+XS.XXS.M.j.b.t.h.o.G ) [ U ^ ^ R T I I T T U R R R R R R T ",
"C V S S S S S S S s Q 2.:.l.c.E.m.z.m.j.e.c.N.c.M.S.S.m.b.j.e.n #X8XXXu.X.X.j.m.t.z.h.Q ~ *.U T ` ^ R T T / / ^ R R R R R R R T ",
"D D S S S S Z Z K S Q T.l.l.c.N.).R.E.6X$Xy.M u.#XS.j.u.X.X.u.y.c.OXm.N N m m c X.+.h.O.#.{ U _ ` ^ ^ / / ^ ] [ ] ] W W R R ^ ^ ",
"D D D S S S Z Z F F k ~._.E.W.v.c.@XXXM.XX6Xv.e.y.a.c.b.c.y.c.M.b.OXc.N a.b.S.b.t.@.<.2.#.) [ _ ] ( / / ^ [ { *.J.*.&.) W ( ] [ ",
"D D D S S Z Z Z F F # Y._.N.W.e.c.l.).N.y.v.C.M.+X8XyX8X#X$X#X#XM.eX=Xn.F.F.+XF.OX@Xz.o.| #.[ [ ] ( ^ ^ ^ [ *.*.K.K.&.&.#.) &.*.",
"D D D D V V S F V ~ 0 ;.>XN.p.i.M.j.E.N.c.M.oXoX+X#X9X=X#X8XeXC.+XeX5Xn.#X-XF.+X=XOXm.+.$.=.J.} ) ( ( ) [ *.,.L.L.U.=.$.#.&.&.*.",
"D D D D D S F K F F | l R.qXW.v.).N.).M.v.XX#XoX-X5X9XyX6X8XXX&X0X0X-Xs.F.%X:X:X+XS.j.+.;.=.*.} ] ( ( ) ) -.,.L.L.U.>.$.#.&.&.*.",
"D P L L G F L ~ ~ L $.Q k.<X#XXX).c.M.N.C.oX&X%XoX+X+XOX#XXXoX-X-X5XeXF.n.Z.G.Z.F.s.t.<.3.=.J.J.] ( ( ( ) -.,.L.L.>.>.$.$.-.*.*.",
"P L L L ~ ~ ~ #.-.-.#.2.:._.$XXXm.y.c.c.C.oX;X-XeXyXeX-XoXM.eX&XyXeXyX7XF.n.Z.G.G.M.b.h.3.=.*.} [ ] ( ( ) *.,.L.L.>.>.$.$.-.*.*.",
"P L #.#.#.#.-.-.L.%.1.2.;.}._.(.b.y.c.c.C.oX&X-X;X9X0X9XM.C.oX#X#X6X-X-Xs.u.7.n.G.M.j.<.>.=.} ' [ ` ^ ^ ) *.K.L.>.>.>.$.&.&.*.*.",
"L | #.$.%.%.=.=.L.1.L.2.2.Y.4X@Xm.c.N.v.C.C.oX%X&X&X&Xc.v.C.4.4.e.M.N.y.7.r.4.7.n.r.X.O.>.*.} H.H.' ` ` [ { *.=.=.$.$.&.&.&.{ { ",
"L | $.=.>.>.1.1.1.P.1.P.T.O.1X4Xm.c.c.c.C.C.C.C.%XF.M.r.&X7XC.c.m b c c n F.i.m u.X.X.o.$.) _ I H.H.' _ [ [ { *.&.&.#.#.) ( ] ] ",
"L | %.>.1.1.1.L.P.L.P.I.3.2.!.}.m.f.f.i.C.C.Z.Z.v.i.m M.#X#X6X$Xf.b X.y.M.n.r.7.c N +.O.#.( ' H.H.' ' ' ' [ [ { { { ) ( W ] ` ` ",
"~ | -.%.1.1.1.1.1.1.1.P.1.1.I.2.:.+.j.j.M.v.#Xv.r.n 4.c.N.N.M.$X$X).$XM.n.u.7.a.c.m.k. .L [ _ H.' ' ' ' _ _ _ _ [ ] ` ` ` ` ` ` ",
"L | | %.,.1.1.1.I.I.1.1.1.L.L.$.T.:.d.t.E.XXM.%X;Xv.r.4.c 1 v t.l.f.u.m c c N F.).z.;.| ) ` _ H._ _ _ ' ' ' ' ' _ _ T T T T I I ",
"G L | %.=.1.1.1.1.I.I.I.1.>.1.| }.k.@.+.t.XXM.&X&XoXoXoXXXM.f.! j.e.n n n y.c.M.m.@...| ) ^ T _ _ _ _ _ _ _ _ _ _ _ _ _ _ ` ` ` ",
"G L | %.%.,.1.1.I.1.>.3.P.1.$.k .X~.Q +.! c.XXW.-X-X&XoXoX6XqX<X#XXXC.v.s.XXF.m.t.@...| ) { [ [ ] ] ` ` ^ ` ` _ ` ` ` ' ' ' ' ' ",
"G L | -.%.=.,.,.%.1.1.,.%.| z # ~.2X:.Q @.j.M.XXoXoX&X&XC.v.W.#XoX#XXXc.r.S.S.l.@.v l x S K / ) ) ) ) [ [ [ [ { ] ] ` ` ` ` T T ",
"G L | #.%.%.%.%. .%. .x , 9 f . ^.pX}.O.v d.N.XXXXXX&XtX*XXXW.C.Z.v.s.r.c.OXm.@.o.r < 8 e e q Z F H K K Y ) ) { ) ] ] ` ` ` ` ` ",
"F G L | | | | | %.G , X , g f   3. XhX{.o.@.l.E.m.oX6XtXoXoX*XoXoXG.F.v.M.m.h.@.v r 9 u k 0 * u e e s s S S F H K Y Y ^ ( ( ] [ ",
"S F G ~ | | | | k , < x x 5 > < . .XgXjX].o.d.R.m.M.#X6XtX&XtXtX&XoXoXF.$Xm.@.v , f k y y y $ 9 9 9 0 0 0 e e e S S H K K / ( ( ",
"j G G L L G k k 9 : 9 g f > : > . 3.dXhXhX}.+.h._.f.c.6X7XoX&X%XoX%XoXF.b.@.h r r > f y g g > > - - , , , : % 7 u u u p p V K ~ ",
"G G G G G k g y > : > f f > : > y . [.gXhXxX X+.d.d.! y.W.oXF.C.F.v.M.a.N @.h   , f g y f g ; @ ; ; = = = - = & 8 8 8 7 7 u s F ",
"G G G x k g 9 : > : > f f 5 > > > . ,.dXgXbXhX1Xk.Q b t.! i.c.i.y.r.r.b @.h.h   , g f 2 f 2 ; ; @ @ @ @ @ = = = $ $ & & * & 8 u ",
"x x k g u 9 : : : > > f 5 5 > > y x . ^.hXbXhXMXpXY.@.X.X.X.M n n b b b z.D.h   > g > > f - ; 5 @ @ @ @ @ @ = = O $ = = $ $ $ & ",
"g g y y 9 > > > : > > > > 5 > > y g   %.dXhXhXhXhXpX].d.X.X.m b b b X.z.`.'.<.  = f > : 5 2 > > = @ @ = @ = = = O = - - $ $ $ $ ",
"2 2 > > > > > > : > > : > 5 5 > : = x # [.gXbXhXiXiXpX}.h.b X.b v :.h.`.3XfX|.B = > f ; > h 2 X = = = = = = = = $ - ; - $ O $ = ",
"> > > > > > > : : > 9 : : 9 9 > f > x   %.gXBXnXbXnX1X1X1Xb 1 c 1 <.!.|.vXvX X~.z + 5 = = g = O - - - - - - = = $ = - = $ X = = ",
"> ; 2 2 > > - - : > 9 : : 9 r > f g - 8 # uXBXCXCXbXpXpX@Xc c m c @.,XxXvXfXfX XO.o + = X > X y - - - - - - = = $ = = $ X X = = ",
"> > > > > > > > > : - - : > f f g g i f o ~.nXBXCXCXZXlXp.M 6.6.4.e.6XlXvXxXfX X/.  g ; = = + ; - - - - - - = = = = = = = = X X ",
"> > > > > > > > > : : : : > f f i i i x , Q vXVXAXCXmXqX9.V.B.0.6.9.y.cXvXnXfXjXiX< < g + X g + ; ; ; ; - = = = = = = = = = X X ",
"> > > > > > > > > > > : : > > y y i i x h o 2XnXCXAXVXf.8.A.0.B.8.M m @XxXxXjXjXjX;.o r 5 + 5 + ; ; ; ; - - = = = = - - = = O X ",
"> > > > > > > > 2 > > > > > > > y g i 2 l o Y.jXCXkX|.1 9.B.0.B.8.M f.d.fXkXjXjXhX2Xh , 5 > + = ; ; ; ; - - = = = = - - = = O X ",
"> > > > > > > > > > > > > > > > y i y - h , v fXAXNXhXl.M 6.6.0.8.g.qX'..XkXjXBXMXxX2.< - > 2 + > > : ; - - - - = - - - = = O X ",
"> > > > > > > > > > > y y 2 > > y y y y g h o  XNXbXhXcX#XQ.8.5.8.Q.zXvXdXkXbXnXZXmX{.  g $ : 2 > > : : ; - - - = - - - = = O X ",
"> > > > > > > > - : > y f f y 9 y 9 g f f h o 2.kXBXBXcXmXrXA.B.q.V.aXxXBXkXNXnXVXZXiX. y & = 2 > > > : ; - - - - - - - - = O X ",
"> > > > > > > > = - > f f f f y 9 g g 2 ; h , z gXgXBXxXcXcXQ.6.B.8.rXvXjXBXkXZXMXMXhXQ   i x . > > > : ; ; - - - - ; ; - = + X ",
"f f y 2 > > > > : : : : > > f f g f y g 2 g h   .XdXbXnXzXcXQ.6.A.6.rXcXvXkXBXBXMXxXpXT.. - x > > ; ; ; - - - = ; ; - - = = = = ",
"f f 2 > > > > > : : : : : > f f f f 9 f 2 f g o P.gXjXBXcXzXV.5.q.B.g.zXvXxXxXZXZXhXhX2.  g > = > ; ; ; - - - = ; ; - - = = = = ",
"2 2 > > > > > > : : : : : > f f 9 f 9 y 2 3 f 9 l gXjXbXmXlXV.0.0.A.9.*XcXcXxXVXjXZXpX..X h   2 > ; ; ; - - - = ; - - = = = = = ",
"> > > > > > > > > : : : : > 2 f 9 f > 2 3 : 9 l o {.NXjXxXaX8.q.B.B.q.p.rXzXcXVXnXBXjX`.h g z > > ; ; ; - - - = - - - = = = = = ",
"> > > > > > > 2 > : : : : : > > > f > > 3 & : z o >.NXbXxXqX8.q.B.B.q.q.V.sXmXVXCXkXjXZX!.l f > > : ; ; ; - - = - - - = = = = = ",
": : : > > > 2 f > > : - - : > > 9 9 y > 3 4 : l r r uXbXnXqX9.q.0.q.q.w.8.*XVXxXNXNXjXhXfX2.  = > : ; ; ; - - = - - = = = = = + ",
": : > > > > y f > > : - - : : > 9 > f > 3 i : k l o ^.bXnXqX8.q.0.q.w.w.q.8.aXvXBXkXxXpX1X1XO.  : : : ; ; - - = - - = = = = + + ",
"- : : > > 2 f f > > : - - - : : 9 > f 3 4 i > r v o P.gXnXlX8.0.0.q.w.w.w.6.E.fXdXkXdX X3XfX`.  : : : ; ; - - = - - = = = = + + "
};
