/* XPM */
static char *_b718db1f1534dfaa1cfafe0cf03c7f0bUbSEkByEAqy327A[] = {
/* columns rows colors chars-per-pixel */
"64 64 256 2 ",
"   c #060000",
".  c #0B0101",
"X  c #0D0A00",
"o  c #140201",
"O  c #1C0000",
"+  c #180A08",
"@  c #1D130E",
"#  c #250803",
"$  c #390801",
"%  c #27140A",
"&  c #3B130C",
"*  c #281A17",
"=  c #381B14",
"-  c #36241B",
";  c #2E241A",
":  c #2B1E27",
">  c #372926",
",  c #392E2E",
"<  c #470706",
"1  c #45140A",
"2  c #580D13",
"3  c #471B17",
"4  c #581818",
"5  c #57090C",
"6  c #65191C",
"7  c #630913",
"8  c #47241A",
"9  c #56271C",
"0  c #53250E",
"q  c #6D1C23",
"w  c #472D27",
"e  c #582924",
"r  c #493628",
"t  c #5C332B",
"y  c #573629",
"u  c #4C3A35",
"i  c #583A33",
"p  c #442E30",
"a  c #682828",
"s  c #75282A",
"d  c #64332D",
"f  c #67372A",
"g  c #74352E",
"h  c #782C32",
"j  c #693834",
"k  c #7B3B3B",
"l  c #763636",
"z  c #6D2E31",
"x  c #62271F",
"c  c #5A4A3A",
"v  c #504333",
"b  c #674539",
"n  c #77463A",
"m  c #6D4C36",
"M  c #763D41",
"N  c #5A4F47",
"B  c #694A43",
"V  c #7B4B44",
"C  c #794845",
"Z  c #6A5745",
"A  c #745C4C",
"S  c #785648",
"D  c #7B5C54",
"F  c #695759",
"G  c #6C614C",
"H  c #6C6654",
"J  c #7B6A54",
"K  c #7E6C5B",
"L  c #776654",
"P  c #786B55",
"I  c #7C7463",
"U  c #7B6963",
"Y  c #85373A",
"T  c #862C36",
"R  c #8C453F",
"E  c #823F42",
"W  c #844444",
"Q  c #824C4A",
"!  c #8A4C4C",
"~  c #8A4647",
"^  c #944949",
"/  c #84534D",
"(  c #885649",
")  c #93574C",
"_  c #964E51",
"`  c #8C5454",
"'  c #845C53",
"]  c #8C5B55",
"[  c #885957",
"{  c #9A5C5D",
"}  c #945856",
"|  c #8C4E51",
" . c #A4474B",
".. c #A6585A",
"X. c #AE5459",
"o. c #96664D",
"O. c #836B5B",
"+. c #876757",
"@. c #93645B",
"#. c #976559",
"$. c #88745D",
"%. c #937052",
"&. c #A5675C",
"*. c #A2745F",
"=. c #995D61",
"-. c #A85D62",
";. c #B55B64",
":. c #9D6363",
">. c #9C6A64",
",. c #956763",
"<. c #857562",
"1. c #8C7464",
"2. c #8C7B65",
"3. c #8D7C6A",
"4. c #86786A",
"5. c #937C65",
"6. c #927D6B",
"7. c #9A7667",
"8. c #9B7971",
"9. c #86736E",
"0. c #AB6C6C",
"q. c #A56967",
"w. c #B8646A",
"e. c #A8746A",
"r. c #B4776E",
"t. c #AA6E71",
"y. c #AA7975",
"u. c #B77A78",
"i. c #B86C71",
"p. c #C47B7A",
"a. c #C2696F",
"s. c #AC895B",
"d. c #94816D",
"f. c #988369",
"g. c #9A8573",
"h. c #9C8A74",
"j. c #978877",
"k. c #8F8672",
"l. c #A3856A",
"z. c #B3926D",
"x. c #A68976",
"c. c #B5867B",
"v. c #A89379",
"b. c #B39372",
"n. c #BB9B7C",
"m. c #B5997A",
"M. c #B1876C",
"N. c #BDA47A",
"B. c #C4857A",
"V. c #C39A7B",
"C. c #CCA87D",
"Z. c #B37D81",
"A. c #CB7B82",
"S. c #9D9085",
"D. c #BA8984",
"F. c #AC9A83",
"G. c #A99987",
"H. c #B39C83",
"J. c #BA9886",
"K. c #A88984",
"L. c #BCA484",
"P. c #B9A58A",
"I. c #BBAB94",
"U. c #B8A896",
"Y. c #BCB29B",
"T. c #ADA490",
"R. c #BCB5A2",
"E. c #B4AEA0",
"W. c #C78887",
"Q. c #C89789",
"!. c #D4958B",
"~. c #CA9894",
"^. c #D69997",
"/. c #D18B8D",
"(. c #C3AC8C",
"). c #CBAC8C",
"_. c #C4A688",
"`. c #D2AB8E",
"'. c #C9B18E",
"]. c #C4AD93",
"[. c #C9A997",
"{. c #D7A899",
"}. c #CBB493",
"|. c #C3B39C",
" X c #C9B698",
".X c #D2B493",
"XX c #D3BC95",
"oX c #D4BC9C",
"OX c #DBBD9B",
"+X c #D7B69A",
"@X c #D6B686",
"#X c #E3BA9E",
"$X c #E4A898",
"%X c #D9ABA4",
"&X c #C8B9A5",
"*X c #DCBDA2",
"=X c #D7B9A5",
"-X c #CFB3B0",
";X c #E5A9A6",
":X c #E3BCA2",
">X c #E7B9A8",
",X c #E9BAB4",
"<X c #F6B6B6",
"1X c #DD9A9D",
"2X c #D4C196",
"3X c #D6C29A",
"4X c #DCC39C",
"5X c #DBC69A",
"6X c #E1C59E",
"7X c #E2C99E",
"8X c #E0D09D",
"9X c #CCC1A9",
"0X c #D5C1A3",
"qX c #DDC4A3",
"wX c #DEC9A5",
"eX c #D3C3AC",
"rX c #DBC5AA",
"tX c #DDCBAB",
"yX c #D5C9A9",
"uX c #CDC6B2",
"iX c #D5CAB4",
"pX c #DBCCB3",
"aX c #D7CAB8",
"sX c #DCD2BD",
"dX c #DCD3BB",
"fX c #DED0AB",
"gX c #E1C6A3",
"hX c #E3CAA4",
"jX c #E3C5AB",
"kX c #E4CCAB",
"lX c #EACDAA",
"zX c #E9CBA7",
"xX c #E9D2AB",
"cX c #E6CDB2",
"vX c #EAC7B7",
"bX c #F3C7B8",
"nX c #E7D4B8",
"mX c #F4D7B5",
"MX c #F2D0AC",
"NX c #F0E0BC",
"BX c #DCD4C2",
"VX c #DFD9C9",
"CX c #DCC4C2",
"ZX c #E3D5C3",
"AX c #E2DAC4",
"SX c #E4DCCA",
"DX c #EADBCA",
"FX c #F4D2C5",
"GX c #ECE1CB",
"HX c #E6E0CB",
"JX c #F3EAD6",
"KX c #F5EBD8",
"LX c #FCF4D9",
"PX c #F2E5CB",
"IX c #FEFAE4",
"UX c #FFEDE6",
/* pixels */
"lXkXgXgXkXlXlXhXlXzXhXhXzXzXzXhXhXlXzX6XOXOXOX6X#X:XjX+XbX:XvXbX>XbXbX>XbXvXvXlX6XxX7X5XkXcXnXpXkXxXxXcXnXcXnXxXkXmXqXnXtXoX# r ",
"lXkXgXgXhXlXzXhXlXzXhXhXzXzXzXzXzXlXzX6XOXOXOX6XgX:XjXjX>XvX=X%X,X,XbXbX,XbX>XjXmX4XzXxXwXrXpXnXkXlXkXcXcXcXcXcXkXmXwXxXtX].% r ",
"lXkXgXgXhXlXhXhXlXzXhXhXzXzXzXzXzXlXzX6XOXOXOX*XgX).vXbX[.=XvXvXx.vX-X%X,X-XFXvXkX4X4X4XMXmXrXkXlXlXkXkXcXcXcXxXkXxXwXkXnX].r Z ",
"lXhXhXgXhXhXhXhXzXhXhXhXgXzXzXgXlXlXlXgXOXoX4XqXcXrX[.J.FX&X[.U.UX9.CX-X-X-X-XU.rXkXlXzX7XgXhXlXlXlXkXkXcXcXcXxXkXhXkXwXnXI.Z O.",
"lXhXhXgXgXhXhXhXzXhXgXgXhXhXhXgXzXlXlX6XOX3XqXqX=XpX|.G.aX|.S.> 9.: 9.F F S.-XaXZXcXkXMX4XOXmX6XzXlXkXcXcXcXcXxXkXhXkXqXkXv.A O.",
"lXhXhXgXgXgXgXhXzXgXgXgXgXhXhXgXhXzXlXqX4X0XqXrXcX&XK.S.u . o +   *     + . , U 9.eXcX4XxXMXzX6XlXkXkXkXcXcXcXxXkXkXkXqX0Xf.L O.",
"kXhXhXgXqXqXgXhXhXgXgXgXgXgXgXgXhXzXzX4X4X0XrXrXdXG.> . * , > , , , , : : , @ . + 4.ZXtXwXlXXXmXzXlXkXkXcXkXkXlXwXhXwXwXoXd.O.O.",
"kXhXhXgXqXqXgXgXhXgXgXgXgXgXgXgXhXzXzX4X4X0XrXrXG.o > u > : > @ + .   . : * : , , . G.PXoXxXhXhXzXlXlXkXkXkXkXkXwXlXwXkX X5.O.O.",
"hXhXhXgXgXgXgXgXhXhXhXgXgXhXzXzX4XzXgXgXqXrXpX&Xu w - + . + + % r u > p o * + . * > * 9XZX0XfXxXzXlXkXkXkXkXkXkXkXwXwX0X].5.1.O.",
"hXhXhXgXgXgXgXgXhXhXhXgXgXhXzXgX3XgXxXlX*X*XrXP.o # L F u N , u w A O.K w > * : . @ . > R.nX0XyXkXkXkXkXkXkXkXkXlXqXqXXX(.5.1.1.",
"hXhXhXgXqXqXqXgXhXhXhXgXgXgXgX7X4X7XzXkXoXqXjXF.o # u > % p u w S S e & 8 w > * p > + . u 9XpXtXwXhXhXkXjXkXtXqXkXqX3X}.P.2.5.2.",
"gXgXgXgXqXqXqXgXgXhXhXgXgXgXgX4XzX4XgXgX+XjXjXl.o 8.i o i B i y ( #.Q 9 m S i > p * * * . 3.nXyXwXhXwXkXkXkXkXqXkX3XXX'.P.$.5.5.",
"gXgXgXqXqXqX4XqXgXhXhXgX4XgX6X4XhX4XzXlXoXjX*X7.+.x.w = j 8 & & ( e.( $ 1 y b B % u p # o y rXrXwXqXwXkXkXkXkXqXqXXX}.(.L.$.5.5.",
"gXgXgXqXqX4X4XqXgXgXgX4X4X6X6X4X6XhXlXlX+X*XvXJ.@.b 9 e t t d d ) r.) 1 0 f m b = j.D y O i jXkXqXqXwXkXkXkXkXqXoX}.'.(.H.$.5.3.",
"qXgXgXqXqX4X4X4XqXgXgX4X4X4X6X4XhXhXhXgXOX*X>XQ.$ +.@.f V ( 9 f &.B.e.n m m m V & D S x.t c.jX6XgXqXwXjXjXrXqXqXXX'.(.L.H.$.5.6.",
"qXqXqXqX4X4X4X4XgX6XqX4X4X4XgX6X7X7X4XzXjX*XQ.@.#.b 3 n @.( ( ) u.B.e.) o.o.( / e & e c.c.bX:X:XgXwXrXjXrXqXqXoXXX'.(.L.m.$.3.6.",
"jXhXqX4XOXOX4X4XOX6XgX6X4X4XgX4X5X2XhXmX+X>XbXq.j d j C ] ] n q.e.u.r.) ( e.e.( 9 d n V @.c.bX:X*XkX0XoXkXgX.XoX'._.(.(.h.5.3.d.",
"qXqXqX4XOXOX4X4X4X6X6X4X4X4X4X5X2X8X4XOX:XFXu.l Q ,./ t >.V b o.#.&.e.#.n Q ] [ $ d e ` #.W.;X>X*XrXqXqXgXoX.X.X}.(.(.].h.6.3.3.",
"qXqXqX4XoXXX4X4X4X5X4X4XOX4X4X4X5XXXgXjX>XD.y.W.t.M 3 j b e 8 f f t d n e S @.[ # 3 3 e 9 ) ;X>X*XqXqXqXOX.X.X.XXX}.}.}.x.d.3.3.",
"qX4X4X4X2X2X2X4X5X5X5X3X4X4X4X4XgXoX*XbXe.{.^.` j j & = b i O $ # # O # O b S w O e & [ >.9 0.;X>X*XqXqXXX.X.X.X}.}.}. Xx.g.d.3.",
"OX4X4X2X2X2X2X2X2X3X4X3X4X4XgXqXkX+XjXQ.bXc.Q c.y.[ B # w = % r - r r r # c B = 8 b O e.Q $ e.^.jX*XqXOX.X.X.X.X}.}.}.].h.g.3.4.",
"OX4X4X4X2X2X2X2X2X3X4X4X4XgXqX*X[.vXD.J.~.y.D.u.[ & = = = # = w - w u v * > > # % 3 i j ] ! 4 q.:XgX*X+X.X.X.X).}.}.].I.f.d.4.K ",
"4X4X4X4X2X2X2X2X2X3X4X4X4XqXOX+XvXS Q./ ~.%X@.V y.+.# * + * + * * % * ; * ; ; % % = t V D.z l l Q.:X#X`.`..X).).).}.].P.6.6.4.K ",
"4X4X4X4X2X2XXXXX2X4X4XOX*X*X+X{.[.3 ~.^.W.! } D.D.B O N * . > ; > ; ; * @ % - = # 8 j d { ~ q W c.+X#X).`..X).).).(.(.P.6.d.3.K ",
"4XXX4XXXgXXX4XOX.XOXgXOXjXmX`.{.8.j ~.Z.| /.D.>.S O.w % > . * @ % @ * * + > - - Z B e e } _ h 5 n #X`.`._.`.+X)._.(. XF.6.j.<.3.",
"3XoXqXXXqX.XoX+X#X+X+XFXbXbX[.D.j Z.C [ ~.:.! ,.J.8.= % u u . * + + + o > u c c b # 1 ] } 6 h ~ < M.>XQ.#X.XV.).).(.].F.6.d.O.3.",
"3XoXqXoXgX+X:X#X:X#XzXbXbXvX@.3 # ` D.~.k C D.~.,.S b # w B * # = = - - c Z L c = 8 3 d } h 2 4 ) !.!.>X`.b..X.X).L.P.F.6.d.K g.",
"0X3XoXOX:X:X#X$X!.c.>XbX,X{.D.,.3 C 1Xq.Q u.q.C y.~.B i = = i w y y b B c $.J v 8 8 3 e z a h z $ r.^.B.Q.{.Q.)._.L.P.v.$.2.L 3.",
"0X0XOX:X>X#X!.B.&.W.W.FX;XbX[.w & d ` ^.} Q Q ~.~.] S t 3 j b 9 t d b b Z x.O.A m b 9 9 9 4 4 a &.&.B.&.!.Q.+XJ._.(.P.h.L J Z J ",
" X3XOXjX>X$XB.&...~ !.u.<XD.' B # u.D.q.a =.:.q.k c.[ t / & n n f n m y m.H.O.$.Z Z b y 8 d l 4 6 /.!.0.r.M.`.).L._.P.f.Z J L <.",
" X0XOX>X$X$Xp.X.^ p.^ ^.,XD.D = O Q.~.1 /.=.l | ~.D.[ [ V n a ( ( o.V %.oXv.5.f.F.].O.m j 3 1 C ~ _ i.{.e.Q.%.Q.L.L.L.f.Z J O.v.",
"0XrX+X+XQ.!.w.X.;.5 _ W.u.S D 3 j / >.q.q.a =.y.=.[ D.j a &.l &.&.o.n .X).f.L.v.&XF.J J i e e e Q ` Y !.W.B.( o.).J.m.5.m Z J G.",
"+XoX*X*X>XQ./...q X. .^ #.K.D o D ,.W.} a W.| e :.%XQ.n >.< &.V.V.o.*.).m.l.v.T.|.G.G.8.A i w b B j W...B.$X .^ q.Q.J.+.A G Z G ",
"OXkX=X*XJ.~.u.^ a.X.T s /.x.u o y.%X< :.0.{ 4 t.u.e.y.Q.d n R o.C.s.@XN.b.I.PX|.T.aXDX-Xg.D b = Z b h p.<XW.a. .u.Q.D.$.A G H H ",
").+X=X*XJ.FX;X..T s Y 6 } [ B # y.>.j /.{ z /.W d y.%XS q.e.g ( s.@X7XXXv.PXIXDXZXKXJXZXU.1.D y r S ! ~ W./.;. ./.Q.c.$.A G P H ",
"gX*XnX].F.vX^.z ^ h 5 Y q.y.i B / y.u.e =.t.{ 6 q.D.>.%X,Xg &.c.o.z.C.N.tXPXLXLXKXSXBXKXZXG.1.B w B k 0.n /.X. .!.{.c.+.A P H H ",
"}.}.cXH.8.jX,X( _ s T Y 0.a 3 [ ^.Q } { W.W =.u.` j Q.Q./ Q.e.n *.s.s.'.LXLXGXLXDXBXDXDXDXZXG.L c t W ~ u.W.X.X.p.;XJ.S A K G H ",
"oXkXnXP.O.=XFXD.u.} a l 4 ! C =.D.< W.q.4 0.u.:.e >.c.e.{.Q.e.M.l.m.XXLXLXLXHXJXJXSXGXaXaXZXY.x.Z b l a q./.....0.;X~.D D K G H ",
"}.qXtXF.$.J.vXD.n ( x ~ { W a q.` W.~ | _ W.z ` u.` ] ,XD.( {.Q.l.(.PXPXPXpXGXHXJXSXSXZXBXaX&XG.g.y e n C n 1XY 0.%X%X8.' J J H ",
"oXoXtXh.h.g.&X+.( n l ! k < l W.t.q.4 u.t.4 u.q.} l ~.@.u.{.c.c.m.mXNXfXyXdXAXIXIXKXaXaXaXiXaXU.g.S e j C u.0._ r.{.bX~.[ D <.H ",
"}.tXrXh.F.g.g.v.@.] n g k h ~ ^.a ! D.k } =.~.2 q.c.z y.{.@.J.M.}.yXtX X9XHXIXIXKXHXBXBXBXsX&X|.G.+.j e t @.D.p.-.^.,X[.@.@.O.G ",
"oXoX0Xh.h.d.d.&X+.%.] } g 2 -.! 0.{ 0.4 D.0.e t.q.` ! u.f Q.+Xm.}.].Y.9XAXKXLXJXHXVXBXBXBXaX&XY.G.$.j t j j ( ^./.;X%X~.:.] O.6.",
" X X=Xx.2.h.2.&X XS 7.) 4 a _ i./.a :.^.l q.q./.2 u.W.< c.~.c._.|. XyXGXLXIXKXHXHXSXBXBXiX&XY.U.6.$.B e y S ,.` -.<X,XD.q.0.+.+.",
"}.0X0Xh.d.v.6.v. Xx.m n l ! ;XE z u.#.{ l u.} 2 W._ q.0.#.) c.+.P.pXLXLXLXLXJXHXSXSXBXiX&XY.I.Y.j.1.A y 3 i [ } -./.;X~._ { #.' ",
"}.rXoXg.x.g.v.f.=X+X+.M.$ u.u.a t.u.4 >.~.$ u.0.! _ q.u.Q ) %X*XI.pXJXJXSXSXSXHXBXBXsXiX&XY.&X&XG.G.A y y 8 t ` Y /.<XW...-.] @.",
" X3X].v.H.6.P.F.f.*Xx.S ( e.u.u.W a ~.Q C ] D.0.a ^.~ u.q.1 ,XIXnXiXaXAXSXBXBXSXBXAXAXaX&XY.|.&XG.P.K i i i t 4 5 A.<XA.X.a.#.>.",
" X X].H.].J.].H.m.x.m.+.+.~.W.Q } q.t.t ,.u.1 u.A.{ i.< n l vXnXDXaXuXBXSXSXBXSXAXAXsXuXY.T.T.|.U.U.g.O.i 8 i a T T ^.1XY X.p.u.",
"(. XoX]. XvX].f.5.A 5.S @.{.V c.y.e j D.C V u.t.A.^ s Y 4 @.J.=X&X9XiXsXBXAXSXAXBXsXiXY.G.v.G.Y.|.sXG.j.8.b e e q  .^./.;.w...u.",
"].I.0X=XnX&XA A Z Z y b 7.7.Q.x.n @.@.] C e.W._ _ Y < ~ a C ~.=XeX9XiXZXAXAXAXBX9XY.G.G.T.F.F.U.Y.dXdXh.O.c t e 4 z ;X;X~ _ i.^ ",
" XI.0X0X0X X5.O.+.S +.b 8.[.@.] J.>.t / W.! ..w.< h h a l e.,X=XeX&XiXAXDXSXBXuXR.R.9XiXpX9XI.T.R.uXsXiX&Xv.' d t C u.<XW...;...",
"(.L. X XH.H.v.O.l.$.8 +.y.( e.Q.#.V >.] Q 0.2 2 h 2 ~ 4 ` c.%XnXeX9XiXnXAXAXAXsXAXAXJXJXGXHXdXY.U.Y.Y.&XU.H.y.,.n n D.^.0.l A. .",
"].P.]. XH.v.P.x.5.' m V n e.W.! } ~.0.:.! 4 Y 2 ~ a a q.d %X=XeXpXeXpXnXnXZXGXKXKXJXKXGXsXnX9Xh.h.k.L A y b m S D / @.{.^.-.a.A.",
"(.}.L.].P.v.L.m.v.l.' n ! ) l p./.{ { C 2 2 k l < } l >.D.v.|.pXpXeXpXnXAXAXDXHXHXdXeX|.T.I.H.J J G c A A 5.1.L +.,.' Q 0.s A.i.",
"_.'.m.L.P.f.f.f.$.%.#.e.k q ;.p.i.q.W z z k < W k ! #.y.7.l.|.9XeX|.&XnXAXdXiX&XU.G.h.2.2.h.d.Z 2.K J 2.x.F.d.A 8.1.b ~.{ < ;.w.",
").).L.P.P.v.f.$.$.m f l s T ;.w...z M z W a a ~ u.{ y.n +.v.I.I.&XI.|.pXdXiX9X&XY.&X9XiXeX|.v.O.$.J L <.G.H.G.j.3.1.i n ! 4 ..w.",
"_.Q.L.L.L.L.v.5.' ( ) ) ..^  .T h z k Q k ` } ` 0.:.1 e.x.l.F.eX&X|.&XtXeXeXsXHXLXIXIXIXJX0Xv.2.2.L A O.T.G.h.j.2.c S j < 2 s X.",
"V.n.n.L.L.L.n.m.%.( M.r.~ T 7 T k C k Q ,.D.q.t.z :.#.@.e.x.H.=X&X|.|.eXiXsXJXJXIXIXIXnXeXv.J J $.6.h.d.O.K G c c c b t d k h h ",
"Q.n.n.n.L.L.m.m.7.( ) ~ 2 6 T 6 l C ,.,.D.D.u.e | } q.$ D.l.J.[.&X9XI.&XDXAXGXIXIXGX&XY.Y.G 2.<.d.6.1.J J K <.I P Z A b e } l h ",
"n.m.m.m.n.m.m.m.' %.n 4 4 7 7 q z C e.D.D.y.] D.:.9 / e.V c.l.P.|.|.U.&XaXGXKXSXR.j.iXsX<.P L O.J J L L <.d.j.v.<.Z Z b t W l s ",
"b.b.b.b.m.n.n.m.%.m Q a 2 6 2 q a / >.D./ 8.~.] Q ,.@./ y.D l.P.F.T.Y.&XR.R.R.4.k.KXaXI r v c L c Z A K d.6.4.d.<.Z c A ' e } k ",
"b.b.b.b.b.m.m.m.n.( n a 4 6 4 l z } ( d D.u.C c.D.C d ' x.1.5.d.h.S.j.S.S.k.j.T.VXuXG . c r Z <.P K <.2.3.<.<.4.P c b J +.e @.! ",
"b.b.b.b.b.b.b.b.n.M.9 4 g k l W ! 4 z u.>./ D.c.[ ,.7.S Z O.6.3.j.I H I 4.j.E.R.T.X   * G c Z j.d.d.j.j.d.d.d.3.Z c Z A i b V / ",
"b.b.b.b.z.z.z.z.V.*.9 f d ` ` z a g W W n D.>.C y.D.b L b r K N c r v N c H I ,   @ X v c v I T.j.d.v.G.d.d.g.K Z Z Z A b D V / ",
"b.b.b.b.z.z.z.b.b.e.x f f } e z _ h 6 g { C / x.,.C K.O.+ .   .   .         X   @ X , N I j.U.&X&XU.&XY.j.h.j.A Z Z b A D C / V "
};
